<mxfile host="app.diagrams.net" agent="Mozilla/5.0 (Windows NT 10.0; Win64; x64) AppleWebKit/537.36 (KHTML, like Gecko) Chrome/131.0.0.0 Safari/537.36" version="24.8.6">
  <diagram name="Страница — 1" id="ZZhOWTO9GqynYaRRQVXx">
    <mxGraphModel dx="750" dy="398" grid="1" gridSize="10" guides="1" tooltips="1" connect="1" arrows="1" fold="1" page="1" pageScale="1" pageWidth="827" pageHeight="1169" math="0" shadow="0">
      <root>
        <mxCell id="0" />
        <mxCell id="1" parent="0" />
        <mxCell id="BHYP_Zm0mnnP-ckn7Vyi-1" value="" style="shape=umlLifeline;perimeter=lifelinePerimeter;whiteSpace=wrap;html=1;container=1;dropTarget=0;collapsible=0;recursiveResize=0;outlineConnect=0;portConstraint=eastwest;newEdgeStyle={&quot;curved&quot;:0,&quot;rounded&quot;:0};participant=umlActor;" vertex="1" parent="1">
          <mxGeometry x="320" y="220" width="20" height="680" as="geometry" />
        </mxCell>
        <mxCell id="BHYP_Zm0mnnP-ckn7Vyi-21" value="" style="html=1;points=[[0,0,0,0,5],[0,1,0,0,-5],[1,0,0,0,5],[1,1,0,0,-5]];perimeter=orthogonalPerimeter;outlineConnect=0;targetShapes=umlLifeline;portConstraint=eastwest;newEdgeStyle={&quot;curved&quot;:0,&quot;rounded&quot;:0};" vertex="1" parent="BHYP_Zm0mnnP-ckn7Vyi-1">
          <mxGeometry x="5" y="60" width="10" height="80" as="geometry" />
        </mxCell>
        <mxCell id="BHYP_Zm0mnnP-ckn7Vyi-18" style="edgeStyle=orthogonalEdgeStyle;rounded=0;orthogonalLoop=1;jettySize=auto;html=1;curved=0;" edge="1" parent="1">
          <mxGeometry relative="1" as="geometry">
            <mxPoint x="412.997843137255" y="390.0000000000001" as="sourcePoint" />
            <mxPoint x="518.39" y="390.0000000000001" as="targetPoint" />
          </mxGeometry>
        </mxCell>
        <mxCell id="BHYP_Zm0mnnP-ckn7Vyi-20" value="&lt;font style=&quot;font-size: 6px;&quot;&gt;Проверка наличий товара&lt;/font&gt;" style="edgeLabel;html=1;align=center;verticalAlign=middle;resizable=0;points=[];" vertex="1" connectable="0" parent="BHYP_Zm0mnnP-ckn7Vyi-18">
          <mxGeometry x="-0.303" relative="1" as="geometry">
            <mxPoint x="10" as="offset" />
          </mxGeometry>
        </mxCell>
        <mxCell id="BHYP_Zm0mnnP-ckn7Vyi-2" value="Система" style="shape=umlLifeline;perimeter=lifelinePerimeter;whiteSpace=wrap;html=1;container=1;dropTarget=0;collapsible=0;recursiveResize=0;outlineConnect=0;portConstraint=eastwest;newEdgeStyle={&quot;curved&quot;:0,&quot;rounded&quot;:0};" vertex="1" parent="1">
          <mxGeometry x="374" y="220" width="80" height="650" as="geometry" />
        </mxCell>
        <mxCell id="BHYP_Zm0mnnP-ckn7Vyi-38" value="" style="html=1;points=[[0,0,0,0,5],[0,1,0,0,-5],[1,0,0,0,5],[1,1,0,0,-5]];perimeter=orthogonalPerimeter;outlineConnect=0;targetShapes=umlLifeline;portConstraint=eastwest;newEdgeStyle={&quot;curved&quot;:0,&quot;rounded&quot;:0};" vertex="1" parent="BHYP_Zm0mnnP-ckn7Vyi-2">
          <mxGeometry x="40" y="355" width="10" height="40" as="geometry" />
        </mxCell>
        <mxCell id="BHYP_Zm0mnnP-ckn7Vyi-39" value="&lt;font style=&quot;font-size: 8px;&quot;&gt;Валидация&lt;/font&gt;" style="html=1;align=left;spacingLeft=2;endArrow=block;rounded=0;edgeStyle=orthogonalEdgeStyle;curved=0;rounded=0;exitX=0.504;exitY=0.848;exitDx=0;exitDy=0;exitPerimeter=0;" edge="1" target="BHYP_Zm0mnnP-ckn7Vyi-38" parent="BHYP_Zm0mnnP-ckn7Vyi-2" source="BHYP_Zm0mnnP-ckn7Vyi-2">
          <mxGeometry x="0.7385" y="11" relative="1" as="geometry">
            <mxPoint x="45" y="335" as="sourcePoint" />
            <Array as="points">
              <mxPoint x="75" y="335" />
              <mxPoint x="75" y="365" />
            </Array>
            <mxPoint as="offset" />
          </mxGeometry>
        </mxCell>
        <mxCell id="BHYP_Zm0mnnP-ckn7Vyi-3" value="Платежный шлюз" style="shape=umlLifeline;perimeter=lifelinePerimeter;whiteSpace=wrap;html=1;container=1;dropTarget=0;collapsible=0;recursiveResize=0;outlineConnect=0;portConstraint=eastwest;newEdgeStyle={&quot;curved&quot;:0,&quot;rounded&quot;:0};" vertex="1" parent="1">
          <mxGeometry x="570" y="490" width="80" height="420" as="geometry" />
        </mxCell>
        <mxCell id="BHYP_Zm0mnnP-ckn7Vyi-46" value="" style="html=1;points=[[0,0,0,0,5],[0,1,0,0,-5],[1,0,0,0,5],[1,1,0,0,-5]];perimeter=orthogonalPerimeter;outlineConnect=0;targetShapes=umlLifeline;portConstraint=eastwest;newEdgeStyle={&quot;curved&quot;:0,&quot;rounded&quot;:0};" vertex="1" parent="BHYP_Zm0mnnP-ckn7Vyi-3">
          <mxGeometry x="40" y="170" width="10" height="40" as="geometry" />
        </mxCell>
        <mxCell id="BHYP_Zm0mnnP-ckn7Vyi-47" value="Валидация" style="html=1;align=left;spacingLeft=2;endArrow=block;rounded=0;edgeStyle=orthogonalEdgeStyle;curved=0;rounded=0;" edge="1" target="BHYP_Zm0mnnP-ckn7Vyi-46" parent="BHYP_Zm0mnnP-ckn7Vyi-3">
          <mxGeometry relative="1" as="geometry">
            <mxPoint x="45" y="150" as="sourcePoint" />
            <Array as="points">
              <mxPoint x="75" y="180" />
            </Array>
          </mxGeometry>
        </mxCell>
        <mxCell id="BHYP_Zm0mnnP-ckn7Vyi-48" value="" style="html=1;points=[[0,0,0,0,5],[0,1,0,0,-5],[1,0,0,0,5],[1,1,0,0,-5]];perimeter=orthogonalPerimeter;outlineConnect=0;targetShapes=umlLifeline;portConstraint=eastwest;newEdgeStyle={&quot;curved&quot;:0,&quot;rounded&quot;:0};" vertex="1" parent="BHYP_Zm0mnnP-ckn7Vyi-3">
          <mxGeometry x="40" y="240" width="10" height="40" as="geometry" />
        </mxCell>
        <mxCell id="BHYP_Zm0mnnP-ckn7Vyi-49" value="Формирование платежа" style="html=1;align=left;spacingLeft=2;endArrow=block;rounded=0;edgeStyle=orthogonalEdgeStyle;curved=0;rounded=0;" edge="1" target="BHYP_Zm0mnnP-ckn7Vyi-48" parent="BHYP_Zm0mnnP-ckn7Vyi-3">
          <mxGeometry relative="1" as="geometry">
            <mxPoint x="45" y="220" as="sourcePoint" />
            <Array as="points">
              <mxPoint x="75" y="250" />
            </Array>
          </mxGeometry>
        </mxCell>
        <mxCell id="BHYP_Zm0mnnP-ckn7Vyi-4" value="Склад" style="shape=umlLifeline;perimeter=lifelinePerimeter;whiteSpace=wrap;html=1;container=1;dropTarget=0;collapsible=0;recursiveResize=0;outlineConnect=0;portConstraint=eastwest;newEdgeStyle={&quot;curved&quot;:0,&quot;rounded&quot;:0};" vertex="1" parent="1">
          <mxGeometry x="480" y="220" width="80" height="260" as="geometry" />
        </mxCell>
        <mxCell id="BHYP_Zm0mnnP-ckn7Vyi-5" style="edgeStyle=orthogonalEdgeStyle;rounded=0;orthogonalLoop=1;jettySize=auto;html=1;curved=0;entryX=0.491;entryY=0.578;entryDx=0;entryDy=0;entryPerimeter=0;" edge="1" parent="1">
          <mxGeometry relative="1" as="geometry">
            <mxPoint x="329.9952173913044" y="280" as="sourcePoint" />
            <mxPoint x="413.2100000000001" y="280.28" as="targetPoint" />
          </mxGeometry>
        </mxCell>
        <mxCell id="BHYP_Zm0mnnP-ckn7Vyi-7" value="&lt;font style=&quot;font-size: 6px;&quot;&gt;Вход в систему&lt;/font&gt;" style="edgeLabel;html=1;align=center;verticalAlign=middle;resizable=0;points=[];" vertex="1" connectable="0" parent="BHYP_Zm0mnnP-ckn7Vyi-5">
          <mxGeometry x="0.0174" y="-2" relative="1" as="geometry">
            <mxPoint as="offset" />
          </mxGeometry>
        </mxCell>
        <mxCell id="BHYP_Zm0mnnP-ckn7Vyi-8" style="edgeStyle=orthogonalEdgeStyle;rounded=0;orthogonalLoop=1;jettySize=auto;html=1;curved=0;entryX=1;entryY=1;entryDx=0;entryDy=-5;entryPerimeter=0;" edge="1" parent="1" source="BHYP_Zm0mnnP-ckn7Vyi-2" target="BHYP_Zm0mnnP-ckn7Vyi-21">
          <mxGeometry relative="1" as="geometry">
            <Array as="points">
              <mxPoint x="354" y="350" />
              <mxPoint x="354" y="355" />
            </Array>
          </mxGeometry>
        </mxCell>
        <mxCell id="BHYP_Zm0mnnP-ckn7Vyi-12" value="&lt;font style=&quot;font-size: 6px;&quot;&gt;Авторизация прошла&lt;/font&gt;" style="edgeLabel;html=1;align=center;verticalAlign=middle;resizable=0;points=[];" vertex="1" connectable="0" parent="BHYP_Zm0mnnP-ckn7Vyi-8">
          <mxGeometry x="-0.0861" y="2" relative="1" as="geometry">
            <mxPoint x="-2" y="-2" as="offset" />
          </mxGeometry>
        </mxCell>
        <mxCell id="BHYP_Zm0mnnP-ckn7Vyi-23" style="edgeStyle=orthogonalEdgeStyle;rounded=0;orthogonalLoop=1;jettySize=auto;html=1;curved=0;entryX=0.541;entryY=0.43;entryDx=0;entryDy=0;entryPerimeter=0;exitX=0.489;exitY=0.735;exitDx=0;exitDy=0;exitPerimeter=0;dashed=1;" edge="1" parent="1" source="BHYP_Zm0mnnP-ckn7Vyi-4">
          <mxGeometry relative="1" as="geometry">
            <mxPoint x="496" y="411" as="sourcePoint" />
            <mxPoint x="413" y="410" as="targetPoint" />
          </mxGeometry>
        </mxCell>
        <mxCell id="BHYP_Zm0mnnP-ckn7Vyi-24" value="&lt;span style=&quot;font-size: 6px;&quot;&gt;Товар в наличии&lt;/span&gt;" style="edgeLabel;html=1;align=center;verticalAlign=middle;resizable=0;points=[];" vertex="1" connectable="0" parent="BHYP_Zm0mnnP-ckn7Vyi-23">
          <mxGeometry x="-0.0861" y="2" relative="1" as="geometry">
            <mxPoint as="offset" />
          </mxGeometry>
        </mxCell>
        <mxCell id="BHYP_Zm0mnnP-ckn7Vyi-27" style="edgeStyle=orthogonalEdgeStyle;rounded=0;orthogonalLoop=1;jettySize=auto;html=1;curved=0;entryX=0.541;entryY=0.43;entryDx=0;entryDy=0;entryPerimeter=0;exitX=0.489;exitY=0.735;exitDx=0;exitDy=0;exitPerimeter=0;dashed=1;" edge="1" parent="1">
          <mxGeometry relative="1" as="geometry">
            <mxPoint x="519" y="441" as="sourcePoint" />
            <mxPoint x="413" y="440" as="targetPoint" />
          </mxGeometry>
        </mxCell>
        <mxCell id="BHYP_Zm0mnnP-ckn7Vyi-28" value="&lt;span style=&quot;font-size: 6px;&quot;&gt;Товар отсутсвует&lt;/span&gt;" style="edgeLabel;html=1;align=center;verticalAlign=middle;resizable=0;points=[];" vertex="1" connectable="0" parent="BHYP_Zm0mnnP-ckn7Vyi-27">
          <mxGeometry x="-0.0861" y="2" relative="1" as="geometry">
            <mxPoint as="offset" />
          </mxGeometry>
        </mxCell>
        <mxCell id="BHYP_Zm0mnnP-ckn7Vyi-29" style="edgeStyle=orthogonalEdgeStyle;rounded=0;orthogonalLoop=1;jettySize=auto;html=1;curved=0;entryX=0.541;entryY=0.43;entryDx=0;entryDy=0;entryPerimeter=0;exitX=0.489;exitY=0.735;exitDx=0;exitDy=0;exitPerimeter=0;dashed=1;" edge="1" parent="1">
          <mxGeometry relative="1" as="geometry">
            <mxPoint x="436" y="441" as="sourcePoint" />
            <mxPoint x="330" y="440" as="targetPoint" />
          </mxGeometry>
        </mxCell>
        <mxCell id="BHYP_Zm0mnnP-ckn7Vyi-30" value="&lt;span style=&quot;font-size: 6px;&quot;&gt;Товар не добавлен&lt;/span&gt;" style="edgeLabel;html=1;align=center;verticalAlign=middle;resizable=0;points=[];" vertex="1" connectable="0" parent="BHYP_Zm0mnnP-ckn7Vyi-29">
          <mxGeometry x="-0.0861" y="2" relative="1" as="geometry">
            <mxPoint x="-13" as="offset" />
          </mxGeometry>
        </mxCell>
        <mxCell id="BHYP_Zm0mnnP-ckn7Vyi-25" style="edgeStyle=orthogonalEdgeStyle;rounded=0;orthogonalLoop=1;jettySize=auto;html=1;curved=0;entryX=0.541;entryY=0.43;entryDx=0;entryDy=0;entryPerimeter=0;exitX=0.489;exitY=0.735;exitDx=0;exitDy=0;exitPerimeter=0;dashed=1;" edge="1" parent="1">
          <mxGeometry relative="1" as="geometry">
            <mxPoint x="436" y="411" as="sourcePoint" />
            <mxPoint x="330" y="410" as="targetPoint" />
          </mxGeometry>
        </mxCell>
        <mxCell id="BHYP_Zm0mnnP-ckn7Vyi-26" value="&lt;span style=&quot;font-size: 6px;&quot;&gt;Товар добавлен&lt;/span&gt;" style="edgeLabel;html=1;align=center;verticalAlign=middle;resizable=0;points=[];" vertex="1" connectable="0" parent="BHYP_Zm0mnnP-ckn7Vyi-25">
          <mxGeometry x="-0.0861" y="2" relative="1" as="geometry">
            <mxPoint as="offset" />
          </mxGeometry>
        </mxCell>
        <mxCell id="BHYP_Zm0mnnP-ckn7Vyi-11" value="&lt;font style=&quot;font-size: 8px;&quot;&gt;Валидация&lt;/font&gt;" style="html=1;align=left;spacingLeft=2;endArrow=block;rounded=0;edgeStyle=orthogonalEdgeStyle;curved=0;rounded=0;" edge="1" target="BHYP_Zm0mnnP-ckn7Vyi-2" parent="1" source="BHYP_Zm0mnnP-ckn7Vyi-2">
          <mxGeometry relative="1" as="geometry">
            <mxPoint x="430" y="310" as="sourcePoint" />
            <Array as="points">
              <mxPoint x="460" y="280" />
              <mxPoint x="460" y="350" />
            </Array>
          </mxGeometry>
        </mxCell>
        <mxCell id="BHYP_Zm0mnnP-ckn7Vyi-13" style="edgeStyle=orthogonalEdgeStyle;rounded=0;orthogonalLoop=1;jettySize=auto;html=1;curved=0;entryX=0.504;entryY=0.578;entryDx=0;entryDy=0;entryPerimeter=0;" edge="1" parent="1">
          <mxGeometry relative="1" as="geometry">
            <mxPoint x="328.9978431372549" y="390.0000000000001" as="sourcePoint" />
            <mxPoint x="413.21000000000004" y="390.28" as="targetPoint" />
          </mxGeometry>
        </mxCell>
        <mxCell id="BHYP_Zm0mnnP-ckn7Vyi-14" value="&lt;font style=&quot;font-size: 5px;&quot;&gt;Добавление товара&lt;/font&gt;" style="edgeLabel;html=1;align=center;verticalAlign=middle;resizable=0;points=[];" vertex="1" connectable="0" parent="BHYP_Zm0mnnP-ckn7Vyi-13">
          <mxGeometry x="0.0042" relative="1" as="geometry">
            <mxPoint as="offset" />
          </mxGeometry>
        </mxCell>
        <mxCell id="BHYP_Zm0mnnP-ckn7Vyi-22" value="alt" style="shape=umlFrame;whiteSpace=wrap;html=1;pointerEvents=0;width=24;height=15;" vertex="1" parent="1">
          <mxGeometry x="304" y="370" width="236" height="100" as="geometry" />
        </mxCell>
        <mxCell id="BHYP_Zm0mnnP-ckn7Vyi-31" value="" style="endArrow=none;dashed=1;html=1;dashPattern=1 3;strokeWidth=2;rounded=0;entryX=0.991;entryY=0.6;entryDx=0;entryDy=0;entryPerimeter=0;exitX=-0.002;exitY=0.594;exitDx=0;exitDy=0;exitPerimeter=0;" edge="1" parent="1" source="BHYP_Zm0mnnP-ckn7Vyi-22" target="BHYP_Zm0mnnP-ckn7Vyi-22">
          <mxGeometry width="50" height="50" relative="1" as="geometry">
            <mxPoint x="327.3078431372549" y="430" as="sourcePoint" />
            <mxPoint x="516.7" y="430" as="targetPoint" />
          </mxGeometry>
        </mxCell>
        <mxCell id="BHYP_Zm0mnnP-ckn7Vyi-32" value="" style="endArrow=classic;html=1;rounded=0;exitX=0.482;exitY=0.797;exitDx=0;exitDy=0;exitPerimeter=0;" edge="1" parent="1">
          <mxGeometry width="50" height="50" relative="1" as="geometry">
            <mxPoint x="330.0000000000001" y="506.91999999999996" as="sourcePoint" />
            <mxPoint x="413.8600000000001" y="506.91999999999996" as="targetPoint" />
          </mxGeometry>
        </mxCell>
        <mxCell id="BHYP_Zm0mnnP-ckn7Vyi-33" value="&lt;font style=&quot;font-size: 7px;&quot;&gt;онлайн оплата&lt;/font&gt;" style="edgeLabel;html=1;align=center;verticalAlign=middle;resizable=0;points=[];" vertex="1" connectable="0" parent="BHYP_Zm0mnnP-ckn7Vyi-32">
          <mxGeometry x="0.0952" relative="1" as="geometry">
            <mxPoint as="offset" />
          </mxGeometry>
        </mxCell>
        <mxCell id="BHYP_Zm0mnnP-ckn7Vyi-36" value="" style="endArrow=classic;html=1;rounded=0;exitX=0.482;exitY=0.797;exitDx=0;exitDy=0;exitPerimeter=0;" edge="1" parent="1">
          <mxGeometry width="50" height="50" relative="1" as="geometry">
            <mxPoint x="330.0000000000001" y="540" as="sourcePoint" />
            <mxPoint x="413.8600000000001" y="540" as="targetPoint" />
          </mxGeometry>
        </mxCell>
        <mxCell id="BHYP_Zm0mnnP-ckn7Vyi-37" value="&lt;font style=&quot;font-size: 7px;&quot;&gt;отправка формы&lt;/font&gt;" style="edgeLabel;html=1;align=center;verticalAlign=middle;resizable=0;points=[];" vertex="1" connectable="0" parent="BHYP_Zm0mnnP-ckn7Vyi-36">
          <mxGeometry x="0.0952" relative="1" as="geometry">
            <mxPoint as="offset" />
          </mxGeometry>
        </mxCell>
        <mxCell id="BHYP_Zm0mnnP-ckn7Vyi-34" value="" style="endArrow=classic;html=1;rounded=0;entryX=0.529;entryY=0.835;entryDx=0;entryDy=0;entryPerimeter=0;dashed=1;" edge="1" parent="1">
          <mxGeometry width="50" height="50" relative="1" as="geometry">
            <mxPoint x="414" y="575" as="sourcePoint" />
            <mxPoint x="331.08000000000004" y="575" as="targetPoint" />
          </mxGeometry>
        </mxCell>
        <mxCell id="BHYP_Zm0mnnP-ckn7Vyi-35" value="&lt;font style=&quot;font-size: 5px;&quot;&gt;Форма для заполнения&lt;/font&gt;" style="edgeLabel;html=1;align=center;verticalAlign=middle;resizable=0;points=[];" vertex="1" connectable="0" parent="BHYP_Zm0mnnP-ckn7Vyi-34">
          <mxGeometry x="-0.1504" y="1" relative="1" as="geometry">
            <mxPoint as="offset" />
          </mxGeometry>
        </mxCell>
        <mxCell id="BHYP_Zm0mnnP-ckn7Vyi-40" value="" style="endArrow=classic;html=1;rounded=0;dashed=1;" edge="1" parent="1">
          <mxGeometry width="50" height="50" relative="1" as="geometry">
            <mxPoint x="414.0044444444446" y="630" as="sourcePoint" />
            <mxPoint x="609.56" y="630" as="targetPoint" />
          </mxGeometry>
        </mxCell>
        <mxCell id="BHYP_Zm0mnnP-ckn7Vyi-41" value="Оплата" style="edgeLabel;html=1;align=center;verticalAlign=middle;resizable=0;points=[];" vertex="1" connectable="0" parent="BHYP_Zm0mnnP-ckn7Vyi-40">
          <mxGeometry x="0.2375" y="2" relative="1" as="geometry">
            <mxPoint as="offset" />
          </mxGeometry>
        </mxCell>
        <mxCell id="BHYP_Zm0mnnP-ckn7Vyi-50" value="" style="endArrow=classic;html=1;rounded=0;dashed=1;" edge="1" parent="1">
          <mxGeometry width="50" height="50" relative="1" as="geometry">
            <mxPoint x="609.56" y="790" as="sourcePoint" />
            <mxPoint x="414.0044444444446" y="790" as="targetPoint" />
          </mxGeometry>
        </mxCell>
        <mxCell id="BHYP_Zm0mnnP-ckn7Vyi-51" value="Деньги списаны" style="edgeLabel;html=1;align=center;verticalAlign=middle;resizable=0;points=[];" vertex="1" connectable="0" parent="BHYP_Zm0mnnP-ckn7Vyi-50">
          <mxGeometry x="-0.1318" y="-1" relative="1" as="geometry">
            <mxPoint as="offset" />
          </mxGeometry>
        </mxCell>
        <mxCell id="BHYP_Zm0mnnP-ckn7Vyi-56" value="" style="endArrow=classic;html=1;rounded=0;dashed=1;" edge="1" parent="1">
          <mxGeometry width="50" height="50" relative="1" as="geometry">
            <mxPoint x="609.56" y="840" as="sourcePoint" />
            <mxPoint x="414.0044444444446" y="840" as="targetPoint" />
          </mxGeometry>
        </mxCell>
        <mxCell id="BHYP_Zm0mnnP-ckn7Vyi-57" value="Деньги не списались" style="edgeLabel;html=1;align=center;verticalAlign=middle;resizable=0;points=[];" vertex="1" connectable="0" parent="BHYP_Zm0mnnP-ckn7Vyi-56">
          <mxGeometry x="-0.1318" y="-1" relative="1" as="geometry">
            <mxPoint as="offset" />
          </mxGeometry>
        </mxCell>
        <mxCell id="BHYP_Zm0mnnP-ckn7Vyi-52" value="" style="endArrow=classic;html=1;rounded=0;dashed=1;" edge="1" parent="1">
          <mxGeometry width="50" height="50" relative="1" as="geometry">
            <mxPoint x="410" y="800" as="sourcePoint" />
            <mxPoint x="325.0044444444446" y="800" as="targetPoint" />
          </mxGeometry>
        </mxCell>
        <mxCell id="BHYP_Zm0mnnP-ckn7Vyi-53" value="Успешно" style="edgeLabel;html=1;align=center;verticalAlign=middle;resizable=0;points=[];" vertex="1" connectable="0" parent="BHYP_Zm0mnnP-ckn7Vyi-52">
          <mxGeometry x="-0.1318" y="-1" relative="1" as="geometry">
            <mxPoint as="offset" />
          </mxGeometry>
        </mxCell>
        <mxCell id="BHYP_Zm0mnnP-ckn7Vyi-58" value="" style="endArrow=classic;html=1;rounded=0;dashed=1;" edge="1" parent="1">
          <mxGeometry width="50" height="50" relative="1" as="geometry">
            <mxPoint x="414" y="840" as="sourcePoint" />
            <mxPoint x="329.0044444444446" y="840" as="targetPoint" />
          </mxGeometry>
        </mxCell>
        <mxCell id="BHYP_Zm0mnnP-ckn7Vyi-59" value="Не успешно" style="edgeLabel;html=1;align=center;verticalAlign=middle;resizable=0;points=[];" vertex="1" connectable="0" parent="BHYP_Zm0mnnP-ckn7Vyi-58">
          <mxGeometry x="-0.1318" y="-1" relative="1" as="geometry">
            <mxPoint as="offset" />
          </mxGeometry>
        </mxCell>
        <mxCell id="BHYP_Zm0mnnP-ckn7Vyi-54" value="&lt;font style=&quot;font-size: 10px;&quot;&gt;loop=5&lt;/font&gt;" style="shape=umlFrame;whiteSpace=wrap;html=1;pointerEvents=0;width=50;height=20;" vertex="1" parent="1">
          <mxGeometry x="570" y="700" width="220" height="80" as="geometry" />
        </mxCell>
        <mxCell id="BHYP_Zm0mnnP-ckn7Vyi-61" value="alt" style="shape=umlFrame;whiteSpace=wrap;html=1;pointerEvents=0;width=40;height=15;" vertex="1" parent="1">
          <mxGeometry x="290" y="620" width="520" height="250" as="geometry" />
        </mxCell>
      </root>
    </mxGraphModel>
  </diagram>
</mxfile>
